# xmcd CD database file
#
# Track frame offsets:
#	150
#	3553
#	18822
#	45579
#	66632
#	88392
#	108743
#	128148
#	147588
#	164777
#	185846
#	203740
#	222109
#	245487
#	263693
#	285139
#
# Disc length: 4090 seconds
#
# Revision: 1
# Processed by: cddbd v1.5.1PL0 Copyright (c) Steve Scherf et al.
# Submitted via: CDex 1.40Beta5
#
DISCID=f50ff810
DTITLE=陳曉東 - AV*CD
DYEAR=1998
DGENRE=Blues
TTITLE0=Data 1
TTITLE1=Data 2
TTITLE2=Data 3
TTITLE3=Data 4
TTITLE4=一萬年
TTITLE5=心的接觸
TTITLE6=甚麼吸引
TTITLE7=結他
TTITLE8=在乎你感受
TTITLE9=猜猜猜
TTITLE10=心理遊戲
TTITLE11=U R MY O. LUV
TTITLE12=愛你(躲你)
TTITLE13=了解你的所有
TTITLE14=難忘你這夜心情
TTITLE15=一次真愛追尋一百次
EXTD=YEAR: 1998 ID3G:   0
EXTT0=
EXTT1=
EXTT2=
EXTT3=
EXTT4=
EXTT5=
EXTT6=
EXTT7=
EXTT8=
EXTT9=
EXTT10=
EXTT11=
EXTT12=
EXTT13=
EXTT14=
EXTT15=
PLAYORDER=
